<?xml version="1.0" encoding="UTF-8" standalone="no"?>
<svg
   width="315"
   height="52.70290670770066"
   viewBox="0 0 315 52.70290670770066"
   class="css-1j8o68f"
   version="1.1"
   id="svg177"
   sodipodi:docname="logo5.svg"
   inkscape:version="1.1 (c68e22c387, 2021-05-23)"
   xmlns:inkscape="http://www.inkscape.org/namespaces/inkscape"
   xmlns:sodipodi="http://sodipodi.sourceforge.net/DTD/sodipodi-0.dtd"
   xmlns="http://www.w3.org/2000/svg"
   xmlns:svg="http://www.w3.org/2000/svg">
  <sodipodi:namedview
     id="namedview179"
     pagecolor="#ffffff"
     bordercolor="#666666"
     borderopacity="1.0"
     inkscape:pageshadow="2"
     inkscape:pageopacity="0.0"
     inkscape:pagecheckerboard="0"
     showgrid="false"
     inkscape:zoom="2.9882159"
     inkscape:cx="155.10927"
     inkscape:cy="35.974643"
     inkscape:window-width="1920"
     inkscape:window-height="1017"
     inkscape:window-x="-8"
     inkscape:window-y="-8"
     inkscape:window-maximized="1"
     inkscape:current-layer="svg177" />
  <defs
     id="SvgjsDefs7422" />
  <g
     id="SvgjsG7423"
     featurekey="symbolFeature-0"
     transform="matrix(3.7274961,0,0,5.186616,39.88348,-20.890885)"
     fill="#ffffff"
     style="fill:#ffffff">
    <title
       id="title3">abstract</title>
    <g
       id="g168"
       transform="matrix(0.0472057,0,0,0.0405145,-10.607575,4.0668302)"
       style="fill:#ffffff">
      <g
         id="SvgjsG10634"
         featurekey="nameFeature-0"
         transform="matrix(10.957361,0,0,10.957361,-36.582707,-187.38499)"
         fill="#111111"
         style="fill:#ffffff">
        <path
           d="M 35.28,21.796 H 8.034 v 4.3716 l 18.01,0.06672 v -0.0068 h 2.3477 c 2.7691,0 6.8888,1.8316 6.8888,6.8776 0,5.046 -4.4332,6.8776 -7.4128,6.8776 H 3.3387 v -4.6954 h 24.513 c 0.07012,-0.0021 0.91604,-0.03453 1.6741,-0.401 0.762,-0.36832 1.0589,-0.86792 1.0589,-1.7814 0,-1.2116 -0.46668,-1.6113 -0.97076,-1.8627 -0.58252,-0.29062 -1.2169,-0.31942 -1.2226,-0.31942 h -2.3477 V 30.916 l -22.705,-0.06672 v -13.748 h 31.942 v 4.6954 z"
           id="path5"
           style="fill:#ffffff" />
      </g>
      <g
         id="g38"
         style="fill:#ffffff">
        <path
           d="M 4.56576,3.4977 C 4.48701,3.44149 4.42151,3.3959 4.4053,3.41338 4.38941,3.43009 4.43022,3.50984 4.5103,3.57708 4.59001,3.64495 4.67761,3.66363 4.69212,3.63522 4.707,3.60652 4.64417,3.554 4.56576,3.4977 Z"
           id="path8"
           style="fill:#ffffff" />
        <path
           d="M 4.32354,3.53219 C 4.25206,3.45697 4.19342,3.41152 4.18104,3.44156 c -0.012,0.02956 0.03125,0.12568 0.10766,0.2051 0.0762,0.08 0.15283,0.10771 0.1599,0.0734 C 4.456,3.68568 4.39483,3.60756 4.32354,3.53219 Z"
           id="path10"
           style="fill:#ffffff" />
        <path
           d="M 4.08307,3.536 C 4.01542,3.4561 3.95944,3.42384 3.94993,3.47032 A 0.37136,0.37136 0 0 0 4.0632,3.70567 c 0.0752,0.08157 0.144,0.10262 0.14566,0.05491 A 0.48615,0.48615 0 0 0 4.08307,3.536 Z"
           id="path12"
           style="fill:#ffffff" />
        <path
           d="M 3.83748,3.53784 C 3.77048,3.46184 3.71406,3.4491 3.70702,3.51278 a 0.39532,0.39532 0 0 0 0.12191,0.25655 c 0.07618,0.077 0.14,0.08291 0.13769,0.01849 A 0.51114,0.51114 0 0 0 3.83748,3.53784 Z"
           id="path14"
           style="fill:#ffffff" />
        <path
           d="M 3.582,3.54712 C 3.51313,3.47988 3.45428,3.48868 3.44923,3.5688 a 0.393,0.393 0 0 0 0.13261,0.27115 c 0.07894,0.069 0.14029,0.05547 0.13517,-0.026 A 0.48327,0.48327 0 0 0 3.582,3.54712 Z"
           id="path16"
           style="fill:#ffffff" />
        <path
           d="M 3.31327,3.56349 C 3.24057,3.50694 3.17763,3.53675 3.17402,3.63149 a 0.37568,0.37568 0 0 0 0.14433,0.28124 c 0.08319,0.05989 0.14457,0.02584 0.13777,-0.072 A 0.43376,0.43376 0 0 0 3.31327,3.56349 Z"
           id="path18"
           style="fill:#ffffff" />
        <path
           d="M 3.037,3.6056 C 2.96226,3.5486 2.89493,3.5776 2.88709,3.67102 A 0.36077,0.36077 0 0 0 3.02592,3.95364 C 3.11055,4.0162 3.17764,3.98464 3.17549,3.88599 A 0.40629,0.40629 0 0 0 3.037,3.6056 Z"
           id="path20"
           style="fill:#ffffff" />
        <path
           d="M 2.74469,3.65646 C 2.66918,3.5929 2.59845,3.60846 2.58521,3.6901 A 0.34244,0.34244 0 0 0 2.71176,3.96384 C 2.7957,4.0342 2.86927,4.01935 2.87376,3.93098 A 0.38533,0.38533 0 0 0 2.74469,3.65646 Z"
           id="path22"
           style="fill:#ffffff" />
        <path
           d="M 2.43349,3.6921 C 2.35843,3.6221 2.28526,3.62319 2.2671,3.69221 A 0.31751,0.31751 0 0 0 2.37966,3.95348 C 2.46142,4.03041 2.53988,4.03305 2.55101,3.95723 A 0.35911,0.35911 0 0 0 2.43349,3.6921 Z"
           id="path24"
           style="fill:#ffffff" />
        <path
           d="M 2.10758,3.709 C 2.03591,3.63036 1.96175,3.61406 1.93778,3.66857 a 0.28523,0.28523 0 0 0 0.09118,0.24727 c 0.07622,0.08443 0.15792,0.10775 0.177,0.04752 A 0.3271,0.3271 0 0 0 2.10758,3.709 Z"
           id="path26"
           style="fill:#ffffff" />
        <path
           d="M 1.76357,3.69786 C 1.69621,3.61547 1.62377,3.58703 1.59716,3.62936 c -0.0263,0.04244 0.005,0.14239 0.075,0.22878 0.07,0.08639 0.15026,0.1233 0.174,0.07671 C 1.87,3.88851 1.83081,3.77991 1.76357,3.69786 Z"
           id="path28"
           style="fill:#ffffff" />
        <path
           d="M 1.41074,3.66244 C 1.3495,3.57835 1.28074,3.5397 1.25314,3.57144 1.22577,3.6033 1.25032,3.69485 1.31241,3.78114 1.37436,3.86724 1.45041,3.91436 1.47697,3.88031 1.50353,3.84626 1.47185,3.74642 1.41074,3.66244 Z"
           id="path30"
           style="fill:#ffffff" />
        <path
           d="M 1.05666,3.60764 C 1.00266,3.52317 0.93959,3.47643 0.91238,3.49919 0.88538,3.52219 0.90438,3.60678 0.95792,3.69173 1.01146,3.77668 1.0802,3.83011 1.10754,3.80653 1.13488,3.78295 1.1105,3.69173 1.05666,3.60764 Z"
           id="path32"
           style="fill:#ffffff" />
        <path
           d="M 0.70929,3.53947 C 0.66284,3.45515 0.60622,3.40095 0.58073,3.41654 0.55524,3.43213 0.57026,3.51185 0.61586,3.59617 0.66128,3.68049 0.72131,3.73808 0.74758,3.72252 0.77385,3.70696 0.75567,3.62375 0.70929,3.53947 Z"
           id="path34"
           style="fill:#ffffff" />
        <ellipse
           cx="0.33283001"
           cy="3.47913"
           rx="0.045600001"
           ry="0.1719"
           transform="rotate(-21.84494,0.3328404,3.4791288)"
           id="ellipse36"
           style="fill:#ffffff" />
      </g>
      <g
         id="g70"
         style="fill:#ffffff">
        <path
           d="M 4.30661,3.0675 C 4.26476,2.98916 4.22788,2.92894 4.21093,2.94234 4.19443,2.95534 4.20713,3.04062 4.25241,3.12457 4.29741,3.20892 4.35492,3.25399 4.3681,3.23514 4.38154,3.216 4.34817,3.14617 4.30661,3.0675 Z"
           id="path40"
           style="fill:#ffffff" />
        <path
           d="M 4.11919,3.041 C 4.07859,2.95616 4.03937,2.90474 4.02141,2.93255 a 0.29915,0.29915 0 0 0 0.0453,0.21211 c 0.04693,0.08725 0.10214,0.12806 0.1133,0.09809 A 0.42083,0.42083 0 0 0 4.11919,3.041 Z"
           id="path42"
           style="fill:#ffffff" />
        <path
           d="M 3.91446,3.01281 C 3.87219,2.92916 3.82792,2.89356 3.80903,2.93744 A 0.32861,0.32861 0 0 0 3.86222,3.17172 C 3.91305,3.256 3.96789,3.28452 3.97794,3.24041 A 0.46285,0.46285 0 0 0 3.91446,3.01281 Z"
           id="path44"
           style="fill:#ffffff" />
        <path
           d="M 3.6914,2.99276 C 3.64496,2.91535 3.59399,2.89942 3.57468,2.95931 A 0.33259,0.33259 0 0 0 3.63917,3.20873 C 3.69531,3.28618 3.75132,3.2981 3.76081,3.2384 A 0.44937,0.44937 0 0 0 3.6914,2.99276 Z"
           id="path46"
           style="fill:#ffffff" />
        <path
           d="M 3.45,2.98318 C 3.3976,2.91524 3.33915,2.92036 3.31988,2.99518 A 0.32,0.32 0 0 0 3.398,3.25418 C 3.46044,3.32257 3.5189,3.31548 3.52812,3.24066 A 0.40682,0.40682 0 0 0 3.45,2.98318 Z"
           id="path48"
           style="fill:#ffffff" />
        <path
           d="M 3.191,2.98244 C 3.13127,2.92567 3.06519,2.95107 3.0463,3.03891 A 0.29937,0.29937 0 0 0 3.13919,3.30323 C 3.20864,3.36174 3.27069,3.3356 3.27999,3.24631 A 0.35579,0.35579 0 0 0 3.191,2.98244 Z"
           id="path50"
           style="fill:#ffffff" />
        <path
           d="M 2.9192,3.00936 C 2.85655,2.95356 2.78672,2.97925 2.7657,3.0655 a 0.28456,0.28456 0 0 0 0.09215,0.26153 c 0.07142,0.05889 0.13822,0.034 0.15057,-0.0551 A 0.32873,0.32873 0 0 0 2.9192,3.00936 Z"
           id="path52"
           style="fill:#ffffff" />
        <path
           d="M 2.63158,3.04942 C 2.56823,2.98957 2.49785,3.00401 2.47489,3.07975 a 0.26986,0.26986 0 0 0 0.086,0.25043 C 2.63151,3.39393 2.70182,3.38205 2.71747,3.30263 A 0.30929,0.30929 0 0 0 2.63158,3.04942 Z"
           id="path54"
           style="fill:#ffffff" />
        <path
           d="M 2.33013,3.0829 C 2.26713,3.0189 2.1968,3.02175 2.17213,3.08669 a 0.253,0.253 0 0 0 0.07866,0.23747 c 0.0687,0.0678 0.14124,0.06894 0.16,3.7e-4 A 0.28761,0.28761 0 0 0 2.33013,3.0829 Z"
           id="path56"
           style="fill:#ffffff" />
        <path
           d="M 2.01936,3.10823 C 1.95927,3.03776 1.89,3.02603 1.86265,3.07879 a 0.23449,0.23449 0 0 0 0.0645,0.22533 c 0.06412,0.0734 0.13746,0.09067 0.1607,0.0349 A 0.26643,0.26643 0 0 0 2.01936,3.10823 Z"
           id="path58"
           style="fill:#ffffff" />
        <path
           d="M 1.69589,3.11759 C 1.63867,3.04444 1.57163,3.02247 1.54373,3.0652 c -0.0277,0.04262 -0.004,0.13518 0.05568,0.21037 0.05968,0.07519 0.13122,0.10288 0.15651,0.058 A 0.24082,0.24082 0 0 0 1.69589,3.11759 Z"
           id="path60"
           style="fill:#ffffff" />
        <path
           d="M 1.36587,3.11313 C 1.31256,3.03806 1.24867,3.00698 1.22101,3.04058 1.19359,3.074 1.21352,3.16047 1.26801,3.23665 1.3225,3.31283 1.39053,3.34919 1.41686,3.31443 1.44319,3.27967 1.41915,3.18794 1.36587,3.11313 Z"
           id="path62"
           style="fill:#ffffff" />
        <path
           d="M 1.033,3.096 C 0.98422,3.01948 0.92449,2.9799 0.89781,3.00533 0.87113,3.03076 0.88803,3.11226 0.93704,3.18919 0.98587,3.26619 1.04885,3.30963 1.07518,3.28357 1.10151,3.25751 1.08173,3.17235 1.033,3.096 Z"
           id="path64"
           style="fill:#ffffff" />
        <path
           d="M 0.70132,3.06765 C 0.65739,2.98938 0.60227,2.94165 0.57717,2.95987 0.55207,2.97809 0.56658,3.05622 0.61025,3.13471 0.65392,3.2132 0.71071,3.26271 0.73604,3.24416 0.76137,3.22561 0.74523,3.146 0.70132,3.06765 Z"
           id="path66"
           style="fill:#ffffff" />
        <ellipse
           cx="0.33238"
           cy="3.0506001"
           rx="0.047419999"
           ry="0.16412"
           transform="rotate(-27.43615,0.33237146,3.050599)"
           id="ellipse68"
           style="fill:#ffffff" />
      </g>
      <g
         id="g102"
         style="fill:#ffffff">
        <path
           d="M 4.23719,2.58026 C 4.22938,2.4937 4.21649,2.42696 4.19566,2.43581 4.17517,2.44454 4.15843,2.52941 4.17079,2.62045 4.18279,2.7118 4.21554,2.77058 4.23148,2.75725 A 0.36726,0.36726 0 0 0 4.23719,2.58026 Z"
           id="path72"
           style="fill:#ffffff" />
        <path
           d="M 4.07672,2.51316 C 4.06543,2.42394 4.04266,2.36784 4.01659,2.3927 a 0.29867,0.29867 0 0 0 -0.02,0.21323 C 4.01514,2.69719 4.0525,2.74579 4.0708,2.71924 A 0.43431,0.43431 0 0 0 4.07672,2.51316 Z"
           id="path74"
           style="fill:#ffffff" />
        <path
           d="M 3.88929,2.4588 C 3.87168,2.37231 3.83695,2.33299 3.80658,2.37493 a 0.31749,0.31749 0 0 0 -0.01,0.23457 C 3.82347,2.69595 3.86683,2.72929 3.88772,2.68779 A 0.44686,0.44686 0 0 0 3.88929,2.4588 Z"
           id="path76"
           style="fill:#ffffff" />
        <path
           d="M 3.67628,2.42115 C 3.6499,2.34168 3.60252,2.32297 3.56904,2.38168 A 0.30892,0.30892 0 0 0 3.57348,2.63014 C 3.60985,2.70839 3.65992,2.72357 3.68327,2.66638 A 0.41547,0.41547 0 0 0 3.67628,2.42115 Z"
           id="path78"
           style="fill:#ffffff" />
        <path
           d="M 3.43983,2.40029 C 3.40316,2.3309 3.34319,2.3345 3.30809,2.40848 A 0.28532,0.28532 0 0 0 3.33,2.6646 C 3.37642,2.73249 3.43365,2.72818 3.459,2.65591 A 0.36484,0.36484 0 0 0 3.43983,2.40029 Z"
           id="path80"
           style="fill:#ffffff" />
        <path
           d="M 3.18257,2.39383 C 3.13472,2.33645 3.06303,2.36199 3.02757,2.44917 A 0.25682,0.25682 0 0 0 3.0687,2.70788 C 3.12535,2.76465 3.18986,2.74077 3.21681,2.6544 A 0.3095,0.3095 0 0 0 3.18257,2.39383 Z"
           id="path82"
           style="fill:#ffffff" />
        <path
           d="M 2.90666,2.42056 C 2.85447,2.36556 2.77957,2.39273 2.74407,2.4787 A 0.24225,0.24225 0 0 0 2.79054,2.73238 C 2.85027,2.78789 2.91877,2.76383 2.94691,2.67756 a 0.2834,0.2834 0 0 0 -0.04025,-0.257 z"
           id="path84"
           style="fill:#ffffff" />
        <path
           d="M 2.61351,2.46625 A 0.092,0.092 0 0 0 2.45318,2.50185 0.23,0.23 0 0 0 2.50082,2.74311 0.08729,0.08729 0 0 0 2.65761,2.7117 0.26471,0.26471 0 0 0 2.61351,2.46625 Z"
           id="path86"
           style="fill:#ffffff" />
        <path
           d="M 2.30914,2.51134 A 0.08873,0.08873 0 0 0 2.15208,2.5234 0.21763,0.21763 0 0 0 2.19981,2.75113 C 2.25836,2.81284 2.32792,2.81065 2.35545,2.74367 A 0.246,0.246 0 0 0 2.30914,2.51134 Z"
           id="path88"
           style="fill:#ffffff" />
        <path
           d="M 1.99835,2.55389 C 1.9469,2.48812 1.87881,2.48103 1.84646,2.53525 a 0.20786,0.20786 0 0 0 0.041,0.21636 C 1.94259,2.81836 2.01119,2.83017 2.03988,2.775 A 0.23305,0.23305 0 0 0 1.99835,2.55389 Z"
           id="path90"
           style="fill:#ffffff" />
        <path
           d="M 1.67817,2.58571 C 1.62797,2.51771 1.56272,2.50098 1.5321,2.54554 A 0.19561,0.19561 0 0 0 1.57135,2.74817 C 1.62389,2.81678 1.69044,2.83798 1.71863,2.79261 A 0.2143,0.2143 0 0 0 1.67817,2.58571 Z"
           id="path92"
           style="fill:#ffffff" />
        <path
           d="M 1.35348,2.6073 C 1.3052,2.53742 1.24308,2.51145 1.21418,2.54717 1.18528,2.58289 1.20163,2.66698 1.25111,2.73728 1.30059,2.80758 1.36411,2.83723 1.39162,2.80107 1.41913,2.76491 1.40162,2.67715 1.35348,2.6073 Z"
           id="path94"
           style="fill:#ffffff" />
        <path
           d="M 1.02624,2.61779 C 0.98061,2.54581 0.922,2.511 0.895,2.53852 0.868,2.56604 0.88315,2.64597 0.92932,2.71824 0.97549,2.79051 1.03511,2.8278 1.06156,2.79996 1.08801,2.77212 1.07186,2.68972 1.02624,2.61779 Z"
           id="path96"
           style="fill:#ffffff" />
        <path
           d="M 0.699,2.6163 C 0.65637,2.54163 0.6017,2.49794 0.57652,2.5181 0.55152,2.53822 0.56552,2.61515 0.60818,2.69017 0.65084,2.76519 0.706,2.8099 0.7311,2.78934 0.7562,2.76878 0.74162,2.691 0.699,2.6163 Z"
           id="path98"
           style="fill:#ffffff" />
        <ellipse
           cx="0.33221999"
           cy="2.6261001"
           rx="0.048719998"
           ry="0.15971"
           transform="rotate(-30.47155,0.33222514,2.6261075)"
           id="ellipse100"
           style="fill:#ffffff" />
      </g>
      <g
         id="g134"
         style="fill:#ffffff">
        <path
           d="M 4.359,2.09983 C 4.38514,2.01297 4.39715,1.93764 4.37244,1.93448 4.34805,1.93132 4.30033,2.00725 4.27878,2.10039 4.25686,2.19358 4.26565,2.26403 4.28548,2.26106 4.3056,2.2579 4.33257,2.187 4.359,2.09983 Z"
           id="path104"
           style="fill:#ffffff" />
        <path
           d="M 4.22324,1.95315 C 4.2429,1.8602 4.23745,1.79331 4.20188,1.80969 A 0.31344,0.31344 0 0 0 4.11013,2.01644 C 4.09836,2.112 4.11813,2.1703 4.14536,2.15172 A 0.42858,0.42858 0 0 0 4.22324,1.95315 Z"
           id="path106"
           style="fill:#ffffff" />
        <path
           d="M 4.0472,1.84032 C 4.05576,1.74812 4.02996,1.69938 3.9852,1.7375 A 0.35352,0.35352 0 0 0 3.9044,1.97484 C 3.90591,2.06597 3.93878,2.10616 3.97311,2.06961 A 0.46443,0.46443 0 0 0 4.0472,1.84032 Z"
           id="path108"
           style="fill:#ffffff" />
        <path
           d="M 3.83337,1.76722 C 3.82752,1.68208 3.78076,1.65829 3.72964,1.71795 A 0.34217,0.34217 0 0 0 3.66738,1.97441 C 3.68377,2.05568 3.73019,2.074 3.77077,2.01855 a 0.43688,0.43688 0 0 0 0.0626,-0.25133 z"
           id="path110"
           style="fill:#ffffff" />
        <path
           d="M 3.58644,1.73358 C 3.56428,1.66058 3.49807,1.66499 3.44333,1.74394 A 0.29989,0.29989 0 0 0 3.40507,2.00885 c 0.03167,0.068 0.09108,0.0628 0.13636,-0.01082 A 0.37394,0.37394 0 0 0 3.58644,1.73358 Z"
           id="path112"
           style="fill:#ffffff" />
        <path
           d="M 3.31216,1.73427 C 3.27324,1.6765 3.19016,1.7091 3.13478,1.80377 A 0.25071,0.25071 0 0 0 3.12359,2.06896 c 0.04647,0.05341 0.11773,0.02482 0.166,-0.06548 A 0.302,0.302 0 0 0 3.31216,1.73427 Z"
           id="path114"
           style="fill:#ffffff" />
        <path
           d="M 3.01156,1.78509 C 2.9662,1.73229 2.88064,1.76951 2.82814,1.86376 a 0.22944,0.22944 0 0 0 0.0026,0.2578 C 2.88213,2.17167 2.9566,2.14024 3.00342,2.04872 A 0.26916,0.26916 0 0 0 3.01156,1.78509 Z"
           id="path116"
           style="fill:#ffffff" />
        <path
           d="M 2.69208,1.86635 C 2.64494,1.81235 2.56427,1.8399 2.51743,1.92362 a 0.21547,0.21547 0 0 0 0.01289,0.24347 c 0.05195,0.05259 0.1247,0.031 0.16673,-0.05141 A 0.24655,0.24655 0 0 0 2.69208,1.86635 Z"
           id="path118"
           style="fill:#ffffff" />
        <path
           d="M 2.36492,1.952 C 2.31672,1.896 2.24073,1.91229 2.1991,1.98464 A 0.203,0.203 0 0 0 2.22042,2.21304 0.093,0.093 0 0 0 2.38088,2.18586 0.22682,0.22682 0 0 0 2.36492,1.952 Z"
           id="path120"
           style="fill:#ffffff" />
        <path
           d="M 2.03562,2.03541 A 0.08937,0.08937 0 0 0 1.87983,2.03441 0.19724,0.19724 0 0 0 1.90142,2.25113 C 1.95109,2.3126 2.0189,2.31634 2.05427,2.25687 A 0.21765,0.21765 0 0 0 2.03562,2.03541 Z"
           id="path122"
           style="fill:#ffffff" />
        <path
           d="M 1.70171,2.10521 C 1.65525,2.0409 1.5885,2.03055 1.55407,2.07921 a 0.18686,0.18686 0 0 0 0.02638,0.20235 c 0.04856,0.06423 0.1136,0.07858 0.14589,0.02983 A 0.20133,0.20133 0 0 0 1.70171,2.10521 Z"
           id="path124"
           style="fill:#ffffff" />
        <path
           d="M 1.36712,2.1587 C 1.3214,2.0917 1.25841,2.0703 1.22736,2.10878 a 0.17936,0.17936 0 0 0 0.02943,0.18963 c 0.04694,0.06715 0.109,0.09163 0.13871,0.053 A 0.18937,0.18937 0 0 0 1.36712,2.1587 Z"
           id="path126"
           style="fill:#ffffff" />
        <path
           d="M 1.0332,2.1926 C 0.98886,2.12244 0.92964,2.09018 0.90155,2.11913 0.87346,2.14808 0.88755,2.22795 0.93242,2.29855 0.97729,2.36915 1.03595,2.4033 1.06336,2.37383 1.09077,2.34436 1.07749,2.26262 1.0332,2.1926 Z"
           id="path128"
           style="fill:#ffffff" />
        <path
           d="M 0.70157,2.20347 C 0.6593,2.12934 0.60411,2.08615 0.57857,2.10638 0.55303,2.12661 0.56696,2.20382 0.60935,2.27871 0.65174,2.3536 0.70649,2.39743 0.73187,2.37634 0.75725,2.35525 0.74382,2.27762 0.70157,2.20347 Z"
           id="path130"
           style="fill:#ffffff" />
        <ellipse
           cx="0.33230999"
           cy="2.2104299"
           rx="0.048069999"
           ry="0.16199"
           transform="rotate(-28.81313,0.33231199,2.21044)"
           id="ellipse132"
           style="fill:#ffffff" />
      </g>
      <g
         id="g166"
         style="fill:#ffffff">
        <path
           d="M 4.67228,1.69491 C 4.73243,1.61724 4.76894,1.53431 4.73993,1.51367 4.71129,1.49308 4.63293,1.55249 4.57817,1.64086 4.52298,1.72933 4.50781,1.80623 4.53109,1.81629 4.55475,1.82616 4.6118,1.7729 4.67228,1.69491 Z"
           id="path136"
           style="fill:#ffffff" />
        <path
           d="M 4.55818,1.4469 C 4.60752,1.3525 4.61759,1.27049 4.57184,1.27372 4.52635,1.27689 4.45036,1.36754 4.41032,1.46656 4.37007,1.56586 4.37381,1.63373 4.41003,1.62614 4.4464,1.61819 4.5086,1.54159 4.55818,1.4469 Z"
           id="path138"
           style="fill:#ffffff" />
        <path
           d="M 4.3851,1.25006 C 4.41765,1.14944 4.39801,1.08484 4.3382,1.11653 a 0.40863,0.40863 0 0 0 -0.14853,0.243 C 4.16844,1.45853 4.19331,1.5081 4.24162,1.47877 A 0.47548,0.47548 0 0 0 4.3851,1.25006 Z"
           id="path140"
           style="fill:#ffffff" />
        <path
           d="M 4.15808,1.11671 C 4.16972,1.02042 4.12038,0.9855 4.0505,1.04593 a 0.41865,0.41865 0 0 0 -0.125,0.27488 c -3.7e-4,0.08957 0.04573,0.11424 0.10437,0.061 a 0.48419,0.48419 0 0 0 0.12821,-0.2651 z"
           id="path142"
           style="fill:#ffffff" />
        <path
           d="M 3.88536,1.04888 C 3.87423,0.96564 3.79789,0.96672 3.72227,1.05288 A 0.36527,0.36527 0 0 0 3.62816,1.34218 C 3.64891,1.41627 3.71465,1.4126 3.78083,1.33596 A 0.42871,0.42871 0 0 0 3.88536,1.04888 Z"
           id="path144"
           style="fill:#ffffff" />
        <path
           d="M 3.57674,1.04008 C 3.54268,0.9757 3.44386,1.01348 3.36683,1.12008 A 0.2893,0.2893 0 0 0 3.308,1.40988 C 3.34847,1.46566 3.43134,1.43329 3.50218,1.33536 A 0.34245,0.34245 0 0 0 3.57674,1.04008 Z"
           id="path146"
           style="fill:#ffffff" />
        <path
           d="M 3.23268,1.10491 C 3.19012,1.04885 3.08915,1.09579 3.01762,1.20337 c -0.07158,0.1073 -0.08423,0.23 -0.03725,0.28 0.04724,0.05 0.13288,0.01158 0.20016,-0.08992 C 3.24751,1.29222 3.27546,1.16093 3.23268,1.10491 Z"
           id="path148"
           style="fill:#ffffff" />
        <path
           d="M 2.86718,1.21741 C 2.82236,1.16227 2.72944,1.20061 2.66772,1.29658 A 0.23171,0.23171 0 0 0 2.64891,1.55844 c 0.04836,0.05123 0.12932,0.02168 0.18767,-0.0706 a 0.26594,0.26594 0 0 0 0.0306,-0.27043 z"
           id="path150"
           style="fill:#ffffff" />
        <path
           d="M 2.49747,1.34338 C 2.45121,1.28775 2.36588,1.31423 2.31308,1.39718 a 0.21136,0.21136 0 0 0 -0.0027,0.24254 c 0.049,0.05335 0.12528,0.03449 0.17534,-0.04608 A 0.23651,0.23651 0 0 0 2.49747,1.34338 Z"
           id="path152"
           style="fill:#ffffff" />
        <path
           d="M 2.13075,1.47055 A 0.09809,0.09809 0 0 0 1.96261,1.48755 0.20254,0.20254 0 0 0 1.96638,1.71513 0.09323,0.09323 0 0 0 2.12823,1.70436 0.22286,0.22286 0 0 0 2.13075,1.47055 Z"
           id="path154"
           style="fill:#ffffff" />
        <path
           d="M 1.7656,1.58323 A 0.0915,0.0915 0 0 0 1.60945,1.5723 0.187,0.187 0 0 0 1.62428,1.78159 C 1.67102,1.8435 1.73781,1.85182 1.77589,1.79742 A 0.20067,0.20067 0 0 0 1.7656,1.58323 Z"
           id="path156"
           style="fill:#ffffff" />
        <path
           d="M 1.40611,1.67533 C 1.36111,1.61026 1.29478,1.59443 1.26046,1.63733 a 0.17624,0.17624 0 0 0 0.023,0.19331 C 1.32952,1.89554 1.39261,1.91526 1.4258,1.87246 A 0.18533,0.18533 0 0 0 1.40611,1.67533 Z"
           id="path158"
           style="fill:#ffffff" />
        <path
           d="M 1.05336,1.741 C 1.009,1.67265 0.94747,1.64445 0.91756,1.6761 0.88765,1.70775 0.901,1.788 0.94582,1.85671 0.99064,1.92542 1.05006,1.95608 1.07938,1.92397 1.1087,1.89186 1.09776,1.80915 1.05336,1.741 Z"
           id="path160"
           style="fill:#ffffff" />
        <path
           d="M 0.70884,1.77435 C 0.66608,1.70167 0.60942,1.66066 0.58316,1.68208 0.5569,1.7035 0.57078,1.78049 0.61358,1.85428 0.65638,1.92807 0.71176,1.96982 0.73796,1.94728 0.76416,1.92474 0.75158,1.847 0.70884,1.77435 Z"
           id="path162"
           style="fill:#ffffff" />
        <ellipse
           cx="0.33267"
           cy="1.79162"
           rx="0.048379999"
           ry="0.16208"
           transform="matrix(0.87629,-0.48178,0.48178,0.87629,-0.82202,0.38191)"
           id="ellipse164"
           style="fill:#ffffff" />
      </g>
    </g>
  </g>
  <g
     id="SvgjsG7424"
     featurekey="nameFeature-0"
     transform="matrix(0.9272072,0,0,0.9272072,42.90415,-14.854786)"
     fill="#fff"
     style="fill:#ffffff">
    <path
       d="m 59.195,16.021 18.353,24.38 h -5.9015 l -5.132,-6.7948 h -14.639 l -5.0572,6.7948 h -5.8354 z m -3.799,12.89 h 7.5966 l -3.7984,-5.0644 z m 52.5,-11.961 c 2.9747,0 7.4,1.8319 7.4,6.8776 0,5.0457 -4.1128,6.8776 -6.8776,6.8776 h -20.344 l -0.03348,9.0684 -4.6952,-0.01754 0.07559,-20.455 v -2.3514 h 0.0086 v -0.0086 l 2.3477,0.0086 h 22.118 z m 1.823,8.697 c 0.43632,-0.24144 0.8826,-0.64608 0.88236,-1.819 0,-0.94328 -0.31914,-1.4539 -1.139,-1.8214 -0.745,-0.33402 -1.5585,-0.36098 -1.5661,-0.36098 h -19.779 v 4.3645 h 20.281 c 0.2048,-0.0071 0.81636,-0.08422 1.3204,-0.36305 z M 147.5,16.95 c 2.9747,0 7.4,1.8319 7.4,6.8776 0,5.0457 -4.1128,6.8776 -6.8776,6.8776 h -20.344 l -0.0335,9.0684 -4.6952,-0.01754 0.0756,-20.455 v -2.3514 h 0.009 v -0.0086 l 2.3477,0.0086 H 147.5 Z m 1.823,8.697 c 0.43632,-0.24144 0.8826,-0.64608 0.88236,-1.819 0,-0.94328 -0.31914,-1.4539 -1.139,-1.8214 -0.745,-0.33402 -1.5585,-0.36098 -1.5661,-0.36098 h -19.779 v 4.3645 h 20.281 c 0.2048,-0.0071 0.81636,-0.08422 1.3204,-0.36305 z m 63.831,-3.717 h -27.18 v 4.3648 h 18.12 v 4.6951 h -18.12 v 9.0599 h -4.6954 v -22.815 h 31.875 v 4.6951 z m 37.519,-2.631 c 1.8355,1.8198 1.8204,4.452 1.7971,8.4364 -0.002,0.29664 -0.003,0.604 -0.005,0.92236 -0.009,2.3647 -0.0152,4.0732 -0.26344,5.514 -0.21137,1.2284 -0.69948,2.9991 -2.4872,4.1908 -2.2642,1.5093 -5.6464,1.5434 -13.056,1.6174 -1.1572,0.01152 -2.2245,0.02016 -3.2091,0.02016 -5.8708,0 -8.822,-0.31074 -10.708,-2.1844 -1.964,-1.9514 -1.953,-4.8252 -1.9368,-9.1752 0.0181,-4.8536 0.029,-7.7832 2.4894,-9.602 2.1227,-1.569 5.2056,-1.6103 11.96,-1.7011 l 1.3479,-0.01856 c 8.4176,-0.12031 11.902,-0.17027 14.071,1.9805 z m -2.866,8.409 c 0.0131,-2.2896 0.0269,-4.6576 -0.41728,-5.0976 -0.55112,-0.54644 -3.0246,-0.67276 -6.3168,-0.67276 -1.3547,0 -2.8484,0.02145 -4.4036,0.04367 l -1.3521,0.01855 c -4.8388,0.06488 -8.3348,0.11195 -9.25,0.78812 -0.5776,0.42692 -0.587,2.9488 -0.59796,5.8692 -0.0102,2.7118 -0.0199,5.2732 0.56032,5.8496 0.9108,0.90508 5.8276,0.85564 10.583,0.80856 5.4604,-0.05441 9.4056,-0.09391 10.516,-0.8342 0.65372,-0.4358 0.66208,-2.7032 0.67384,-5.8416 10e-4,-0.32148 0.003,-0.632 0.005,-0.93176 z m 40.976,7.406 2.324,-0.03484 0.0696,4.6484 -2.3241,0.0348 c -0.36176,0.0055 -0.77084,0.0118 -1.2174,0.0118 -3.2279,0 -8.4052,-0.32016 -11.676,-3.5423 -1.456,-1.4345 -2.3731,-3.258 -2.7396,-5.44 h -8.4109 l -0.0332,8.9792 -4.6492,-0.01727 0.0748,-20.255 v -2.327 h 0.009 v -0.0086 l 2.3223,0.0086 h 21.902 c 2.9457,0 7.3276,1.8136 7.3276,6.8096 0,4.9964 -4.0724,6.81 -6.8096,6.81 h -6.9651 c 0.25086,0.8504 0.65684,1.5585 1.2347,2.1279 2.337,2.3019 7.216,2.2292 9.5608,2.1939 z m -23.9322,-8.971 20.081,-3.9e-5 c 0.20297,-0.0071 0.80852,-0.08344 1.3076,-0.35942 0.43216,-0.2391 0.87372,-0.64012 0.87372,-1.8015 0,-0.93384 -0.31598,-1.4394 -1.1276,-1.8033 -0.73764,-0.33062 -1.543,-0.3573 -1.5506,-0.3573 h -19.584 v 4.3216 z"
       id="path171"
       style="fill:#ffffff"
       sodipodi:nodetypes="cccccccccccccsscccccccccccccsccccccsscccccccccccccscccccccccccccccccccccssscscccccccscccsccscccccccsccccccccccssscccccccscsccc" />
  </g>
  <g
     id="SvgjsG7425"
     featurekey="nameFeature-1"
     transform="matrix(0.86607024,0,0,0.86607024,43.10828,18.320109)"
     fill="#fff"
     style="fill:#ffffff">
    <path
       d="m 42.8625,16.95 h 31.875 v 4.6954 h -13.591 v 18.186 H 56.4514 V 21.6454 H 42.8624 V 16.95 Z m 71.4395,0.024 0.0835,11.4 c 0.0343,2.5224 -0.98356,4.9712 -2.8664,6.896 -1.9964,2.0406 -5.8816,4.484 -13.054004,4.5368 -0.06957,5.08e-4 -0.13941,7.81e-4 -0.20848,7.81e-4 -5.4292,0 -9.9632,-1.5595 -12.785,-4.402 -1.9399,-1.954 -2.9907,-4.4436 -2.9611,-7.0128 l -0.08398,-11.384 4.6952,-0.0348 0.08449,11.433 -2.73e-4,0.02562 c -0.01938,1.3246 0.53336,2.5915 1.598,3.664 1.9603,1.9747 5.3772,3.043 9.6272,3.014 4.335197,-0.03191 7.791197,-1.1416 9.731997,-3.1251 1.0183,-1.0408 1.5467,-2.2692 1.5279,-3.553 v -0.01676 l -0.0842,-11.407 z m 36.736,4.68 c 1.9114,1.9388 2.9436,4.4228 2.9067,6.994 -0.0458,3.1829 -1.58,6.0872 -4.32,8.1784 -2.8541,2.1779 -6.8708,3.3291 -11.616,3.3291 -9.0576,0 -13.616,-0.1334 -13.661,-0.13469 l -2.2774,-0.06828 v -22.746 h 15.938 c 7.1456,0 11.03,2.4183 13.03,4.4472 z m -13.029,13.8068 c 7.6972,0 11.192,-3.4552 11.242,-6.8792 0.0188,-1.3234 -0.51924,-2.5787 -1.5559,-3.6305 -1.9378,-1.9658 -5.3776,-3.0482 -9.686,-3.0482 h -11.243 v 13.474 c 2.18,0.03793 5.926,0.08398 11.243,0.08398 z m 55.501,-13.5588 -27.18,3.9e-5 v 4.3726 l 18.128,0.0675 -0.0173,4.6956 -18.111,-0.0675 v 4.3564 h 27.18 v 4.6954 h -31.875 v -22.815 h 31.875 v 4.6951 z m 34.828,-4.717 h 4.6952 v 22.5 L 205.8542,25.489 V 40 h -4.6954 V 17.5 l 27.18,14.196 V 17.185 Z m 12.3445,-0.235 h 31.875 v 4.6954 h -13.591 v 18.186 h -4.6951 v -18.186 h -13.589 V 16.95 Z m 45.1415,5.059 c -0.43632,0.24117 -0.88236,0.64612 -0.88236,1.8193 0,0.91448 0.29558,1.4144 1.0547,1.7822 0.76772,0.37195 1.6239,0.39914 1.6671,0.4002 l 17.067,0.06672 c 2.9656,0 7.3912,1.8316 7.3912,6.8776 0,5.046 -4.1128,6.8776 -6.8776,6.8776 h -24.997 v -4.6954 h 24.977 c 0.2048,-0.0071 0.81636,-0.08422 1.3204,-0.36305 0.43656,-0.24144 0.88256,-0.64636 0.88256,-1.8193 0,-0.91448 -0.29558,-1.4144 -1.0547,-1.7822 -0.7654,-0.37094 -1.6208,-0.39894 -1.6686,-0.40024 l -17.056,-0.07586 v 0.0091 c -2.975,0 -7.4008,-1.8316 -7.4008,-6.8776 0,-5.046 4.1128,-6.8776 6.8776,-6.8776 h 24.997 v 4.6954 h -24.976 c -0.20457,0.0071 -0.81668,0.08422 -1.321,0.36305 z"
       id="path174"
       style="fill:#ffffff"
       sodipodi:nodetypes="cccccccccccccssccccccccccccccccscccscccccscccccccccccccccccccccccccccccccccccccccssccsscccssccccssccccc" />
  </g>
</svg>
